<svg enable-background="new 0 0 900 900" viewBox="0 0 900 900" xmlns="http://www.w3.org/2000/svg"><g fill="#c4c4de"><path d="m312.1 450.1c0-10.2 0-19.7 0-28.6h-57.3c-4.1 0-6.8 2.7-6.8 6.8v104c0 2.7-1.4 4.1-4.1 4.1h-49.6v-1.4l91.8-308.7c1.4-4.8-1.4-7.5-5.4-7.5h-71.4c-4.8 0-6.1 1.4-7.5 5.4l-92.4 308.8c-.7 2-1.4 4.8-1.4 7.5v65.3c0 4.1 2.7 6.8 6.8 6.8h129.2c2.7 0 4.1 1.4 4.1 4.1v57.8c0 4.1 2.7 6.8 6.8 6.8h69.4c4.1 0 6.8-2.7 6.8-6.8v-31.9c-4.7-7.3-8.6-15.5-11.5-24.5-5.5-17.1-7.5-35.4-7.5-168z"/><path d="m519 605.8v-65.3c0-2.7.7-5.4 1.4-7.5l39.6-132.1c-.5-88.6-2.7-104.2-7.4-118.9-13.6-45.6-52.4-69.4-106.8-69.4s-91.8 24.5-106.1 69.4c-5.4 17-8.2 35.4-8.2 168s2 151 7.5 168c14.3 44.9 52.4 69.4 106.8 69.4s93.2-23.8 106.8-69.4c.6-1.8 1.1-3.5 1.6-5.4h-28.3c-4.2 0-6.9-2.7-6.9-6.8zm-47.4-10.9c-3.4 10.9-11.6 17.7-25.8 17.7-13.6 0-22.4-6.8-25.8-17.7-2-6.8-2.7-15-2.7-144.8 0-129.9.7-138 2.7-144.8 3.4-10.9 12.2-17.7 25.8-17.7s22.4 6.8 25.8 17.7c2 6.8 2.7 15 2.7 144.8s-.7 138-2.7 144.8z"/><path d="m538.4 605.8v-65.3c0-2.7.7-5.4 1.4-7.5l92.5-308.7c1.4-4.1 2.7-5.4 7.5-5.4h71.4c4.1 0 6.8 2.7 5.4 7.5l-91.8 308.7v1.4h49.6c2.7 0 4.1-1.4 4.1-4.1v-104c0-4.1 2.7-6.8 6.8-6.8h69.4c4.1 0 6.8 2.7 6.8 6.8v104c0 2.7.7 4.1 3.4 4.1h20.4c4.1 0 6.8 2.7 6.8 6.8v62.6c0 4.1-2.7 6.8-6.8 6.8h-19.7c-2.7 0-4.1 1.4-4.1 4.1v57.8c0 4.1-2.7 6.8-6.8 6.8h-69.4c-4.1 0-6.8-2.7-6.8-6.8v-57.8c0-2.7-1.4-4.1-4.1-4.1h-129.2c-4.1-.1-6.8-2.8-6.8-6.9z"/><path d="m362 97.5c0-.5.4-.9.9-.9h23.4c.5 0 .9.4.9.9v5c0 .5-.4.9-.9.9h-16.3c-.4 0-.5.2-.5.5v19.3c0 .4.2.5.5.5h14.2c.5 0 .9.4.9.9v5c0 .5-.4.9-.9.9h-14.2c-.4 0-.5.2-.5.5v19.9c0 .4.2.5.5.5h16.4c.5 0 .9.4.9.9v5c0 .5-.4.9-.9.9h-23.4c-.5 0-.9-.4-.9-.9v-59.8z"/><path d="m418.4 158.5c-.5 0-.8-.2-1-.6l-7.7-25.9c-.8.1-1.7.1-2.5.1h-3.7c-.4 0-.5.2-.5.5v25c0 .5-.4.9-.9.9h-5.6c-.5 0-.9-.4-.9-.9v-60.1c0-.5.4-.9.9-.9h10.8c10.9 0 16.8 4.7 16.8 17.8 0 8.3-2.7 13.3-7.6 15.8l8.7 27.4c.2.5 0 .9-.5.9zm-1.8-44.1c0-8.4-2.7-11-9.3-11h-3.9c-.4 0-.5.2-.5.5v20.9c0 .4.2.5.5.5h3.9c6.4.1 9.3-2.4 9.3-10.9z"/><path d="m456.7 158.5c-.5 0-.8-.2-1-.6l-7.7-25.9c-.8.1-1.7.1-2.5.1h-3.7c-.4 0-.5.2-.5.5v25c0 .5-.4.9-.9.9h-5.6c-.5 0-.9-.4-.9-.9v-60.1c0-.5.4-.9.9-.9h10.8c10.9 0 16.8 4.7 16.8 17.8 0 8.3-2.7 13.3-7.6 15.8l8.7 27.4c.2.5 0 .9-.5.9zm-1.8-44.1c0-8.4-2.7-11-9.3-11h-3.9c-.4 0-.5.2-.5.5v20.9c0 .4.2.5.5.5h3.9c6.4.1 9.3-2.4 9.3-10.9z"/><path d="m472.3 150.1c-.9-2.7-1.2-5-1.2-22.6s.3-19.9 1.2-22.6c1.9-5.9 6.6-9.2 13.6-9.2s11.7 3.3 13.6 9.2c.9 2.7 1.2 5 1.2 22.6s-.3 19.9-1.2 22.6c-1.8 5.9-6.6 9.2-13.6 9.2s-11.7-3.3-13.6-9.2zm20.1-2.1c.5-1.8.7-3.2.7-20.5s-.2-18.7-.7-20.5c-.9-2.8-3.3-4.4-6.6-4.4s-5.6 1.5-6.5 4.4c-.6 1.8-.8 3.2-.8 20.5s.2 18.7.8 20.5c.9 2.8 3.2 4.4 6.5 4.4s5.7-1.6 6.6-4.4z"/><path d="m533.5 158.5c-.5 0-.8-.2-1-.6l-7.7-25.9c-.8.1-1.7.1-2.5.1h-3.7c-.4 0-.5.2-.5.5v25c0 .5-.4.9-.9.9h-5.6c-.5 0-.9-.4-.9-.9v-60.1c0-.5.4-.9.9-.9h10.8c10.9 0 16.8 4.7 16.8 17.8 0 8.3-2.7 13.3-7.6 15.8l8.7 27.4c.2.5 0 .9-.5.9zm-1.8-44.1c0-8.4-2.7-11-9.3-11h-3.9c-.4 0-.5.2-.5.5v20.9c0 .4.2.5.5.5h3.9c6.4.1 9.3-2.4 9.3-10.9z"/><path d="m109.7 803.5c-.5 0-.9-.4-.9-.9v-60.1c0-.5.4-.9.9-.9h10.8c10.9 0 16.8 4.9 16.8 18.6 0 13.4-5.9 18.6-16.8 18.6h-3.8c-.4 0-.5.2-.5.5v23.3c0 .5-.4.9-.9.9zm20.2-43.4c0-8.7-2.6-11.7-9.4-11.7h-3.8c-.4 0-.5.2-.5.5v22.4c0 .4.2.5.5.5h3.8c6.8.1 9.4-2.9 9.4-11.7z"/><path d="m151.1 742.4c.2-.5.5-.9 1-.9h5.5c.5 0 .9.4 1 .9l13 60.1c.1.5-.3.9-.8.9h-5.5c-.6 0-.9-.4-1-.9l-2.7-13.6h-13.8l-2.7 13.6c-.1.5-.4.9-.9.9h-5.5c-.5 0-.9-.4-.8-.9zm9.2 40.2-5.3-27h-.3l-5.6 27zm-7.2-48.6c-.5 0-.9-.5-.5-.9l7-9.6c.5-.6.7-.9 1.5-.9h5.3c.5 0 .8.5.5.9l-8.5 9.6c-.6.7-1 .9-1.7.9z"/><path d="m176.6 772.5c0-17.6.3-19.9 1.2-22.6 1.9-5.9 6.6-9.2 13.6-9.2 8.6 0 13.4 4.8 14.4 13.5.1.5-.1 1-.6 1.1l-5.1 1c-.6.1-1-.2-1.1-.7-.6-5.1-3-7.9-7.5-7.9-3.3 0-5.6 1.5-6.6 4.4-.6 1.8-.8 3.2-.8 20.5s.2 18.7.8 20.5c.9 2.8 3.4 4.4 6.6 4.4s5.7-1.5 6.6-4.4c.5-1.7.8-3.2.8-15.8 0-.4-.2-.5-.5-.5h-6.1c-.5 0-.9-.4-.9-.9v-4.8c0-.5.4-.9.9-.9h12.8c.5 0 .9.4.9.9v2.6c0 16.6-.3 18.9-1.2 21.6-1.8 5.9-6.6 9.2-13.6 9.2s-11.7-3.3-13.6-9.2c-.8-3-1-5.2-1-22.8z"/><path d="m215.5 742.4c0-.5.4-.9.9-.9h5.6c.5 0 .9.4.9.9v60.1c0 .5-.4.9-.9.9h-5.6c-.5 0-.9-.4-.9-.9z"/><path d="m233.8 742.4c0-.5.4-.9.9-.9h6.8c.7 0 1.2.3 1.4.9l13.8 46.4h.4v-46.4c0-.5.4-.9.9-.9h4.8c.5 0 .9.4.9.9v60.1c0 .5-.4.9-.9.9h-6.5c-.7 0-1.2-.3-1.4-.9l-14.1-46.4h-.5v46.4c0 .5-.4.9-.9.9h-4.8c-.5 0-.9-.4-.9-.9v-60.1z"/><path d="m284.1 742.4c.2-.5.5-.9 1-.9h5.5c.5 0 .9.4 1 .9l13 60.1c.1.5-.3.9-.8.9h-5.5c-.6 0-.9-.4-1-.9l-2.7-13.6h-13.8l-2.7 13.6c-.1.5-.4.9-.9.9h-5.5c-.5 0-.9-.4-.8-.9zm9.2 40.2-5.3-27h-.3l-5.6 27z"/><path d="m329 742.4c0-.5.4-.9.9-.9h6.8c.7 0 1.2.3 1.4.9l13.8 46.4h.4v-46.4c0-.5.4-.9.9-.9h4.8c.5 0 .9.4.9.9v60.1c0 .5-.4.9-.9.9h-6.5c-.7 0-1.2-.3-1.4-.9l-14.1-46.4h-.5v46.4c0 .5-.4.9-.9.9h-4.8c-.5 0-.9-.4-.9-.9v-60.1z"/><path d="m370.1 795.1c-.9-2.7-1.2-5-1.2-22.6s.3-19.9 1.2-22.6c1.9-5.9 6.6-9.2 13.6-9.2s11.7 3.3 13.6 9.2c.9 2.7 1.2 5 1.2 22.6s-.3 19.9-1.2 22.6c-1.8 5.9-6.6 9.2-13.6 9.2s-11.7-3.3-13.6-9.2zm20.1-2.1c.5-1.8.7-3.2.7-20.5s-.2-18.7-.7-20.5c-.9-2.8-3.3-4.4-6.6-4.4s-5.6 1.5-6.5 4.4c-.6 1.8-.8 3.2-.8 20.5s.2 18.7.8 20.5c.9 2.8 3.2 4.4 6.5 4.4s5.7-1.6 6.6-4.4z"/><path d="m425.6 742.4c0-.5.4-.9.9-.9h23.4c.5 0 .9.4.9.9v5c0 .5-.4.9-.9.9h-16.4c-.4 0-.5.2-.5.5v19.3c0 .4.2.5.5.5h14.2c.5 0 .9.4.9.9v5c0 .5-.4.9-.9.9h-14.2c-.4 0-.5.2-.5.5v19.9c0 .4.2.5.5.5h16.4c.5 0 .9.4.9.9v5c0 .5-.4.9-.9.9h-23.4c-.5 0-.9-.4-.9-.9z"/><path d="m459 742.4c0-.5.4-.9.9-.9h6.8c.7 0 1.2.3 1.4.9l13.8 46.4h.4v-46.4c0-.5.4-.9.9-.9h4.8c.5 0 .9.4.9.9v60.1c0 .5-.4.9-.9.9h-6.5c-.7 0-1.2-.3-1.4-.9l-14.1-46.4h-.5v46.4c0 .5-.4.9-.9.9h-4.8c-.5 0-.9-.4-.9-.9v-60.1z"/><path d="m498.9 772.5c0-17.6.3-20.1 1.1-22.7 1.9-5.8 6.3-9.1 13.3-9.1 8.1 0 13 4.4 13.8 13.8.1.6-.2 1-.7 1.1l-5.2 1c-.5.1-1-.2-1-.7-.5-5.6-2.5-8.3-6.8-8.3-3.3 0-5.3 1.4-6.2 4.3-.5 1.7-.8 3.5-.8 20.6s.3 18.9.8 20.6c.9 2.9 2.9 4.3 6.2 4.3 4.3 0 6.4-2.7 6.8-8.3 0-.5.5-.8 1-.7l5.2 1c.5.1.8.5.7 1.1-.8 9.5-5.7 13.8-13.8 13.8-7 0-11.4-3.3-13.3-9.1-.8-2.6-1.1-5.1-1.1-22.7z"/><path d="m534.8 795.1c-.9-2.7-1.2-5-1.2-22.6s.3-19.9 1.2-22.6c1.9-5.9 6.6-9.2 13.6-9.2s11.7 3.3 13.6 9.2c.9 2.7 1.2 5 1.2 22.6s-.3 19.9-1.2 22.6c-1.8 5.9-6.6 9.2-13.6 9.2s-11.7-3.3-13.6-9.2zm20.1-2.1c.5-1.8.7-3.2.7-20.5s-.2-18.7-.7-20.5c-.9-2.8-3.3-4.4-6.6-4.4s-5.6 1.5-6.5 4.4c-.6 1.8-.8 3.2-.8 20.5s.2 18.7.8 20.5c.9 2.8 3.2 4.4 6.5 4.4s5.7-1.6 6.6-4.4z"/><path d="m573 742.4c0-.5.4-.9.9-.9h6.8c.7 0 1.2.3 1.4.9l13.8 46.4h.4v-46.4c0-.5.4-.9.9-.9h4.8c.5 0 .9.4.9.9v60.1c0 .5-.4.9-.9.9h-6.5c-.7 0-1.2-.3-1.4-.9l-14.1-46.4h-.5v46.4c0 .5-.4.9-.9.9h-4.8c-.5 0-.9-.4-.9-.9v-60.1z"/><path d="m622.5 803.5c-.5 0-.9-.4-.9-.9v-53.6c0-.4-.2-.5-.5-.5h-10.2c-.5 0-.9-.4-.9-.9v-5c0-.5.4-.9.9-.9h28.9c.5 0 .9.4.9.9v5c0 .5-.4.9-.9.9h-10.2c-.4 0-.5.2-.5.5v53.6c0 .5-.4.9-.9.9z"/><path d="m670.5 803.5c-.5 0-.8-.2-1-.6l-7.7-25.9c-.8.1-1.7.1-2.5.1h-3.7c-.4 0-.5.2-.5.5v25c0 .5-.4.9-.9.9h-5.6c-.5 0-.9-.4-.9-.9v-60.1c0-.5.4-.9.9-.9h10.8c10.9 0 16.8 4.7 16.8 17.8 0 8.3-2.7 13.3-7.6 15.8l8.7 27.4c.2.5 0 .9-.5.9zm-1.9-44.1c0-8.4-2.7-11-9.3-11h-3.9c-.4 0-.5.2-.5.5v20.9c0 .4.2.5.5.5h3.9c6.4.1 9.3-2.5 9.3-10.9z"/><path d="m695.2 742.4c.2-.5.5-.9 1-.9h5.5c.5 0 .9.4 1 .9l13 60.1c.1.5-.3.9-.8.9h-5.5c-.6 0-.9-.4-1-.9l-2.7-13.6h-13.8l-2.7 13.6c-.1.5-.4.9-.9.9h-5.5c-.5 0-.9-.4-.8-.9zm9.2 40.2-5.3-27h-.3l-5.6 27z"/><path d="m722.8 742.4c0-.5.4-.9.9-.9h12.8c7.8 0 12.3 3.3 14.3 9.7 1.1 3.4 1.5 7.5 1.5 21.3s-.4 17.9-1.5 21.3c-2 6.4-6.5 9.7-14.3 9.7h-12.8c-.5 0-.9-.4-.9-.9zm7.9 54.2h5.1c4.2 0 6.6-1.6 7.8-5.3.8-2.5 1.2-5.9 1.2-18.9s-.4-16.3-1.2-18.9c-1.3-3.6-3.6-5.3-7.8-5.3h-5.1c-.4 0-.5.2-.5.5v47.2c0 .5.2.7.5.7z"/><path d="m770.5 742.4c.2-.5.5-.9 1-.9h5.5c.5 0 .9.4 1 .9l13 60.1c.1.5-.3.9-.8.9h-5.5c-.6 0-.9-.4-1-.9l-2.7-13.5h-13.8l-2.7 13.6c-.1.5-.4.9-.9.9h-5.5c-.5 0-.9-.4-.8-.9zm9.2 40.2-5.3-27h-.3l-5.6 27z"/></g></svg>