<?xml version="1.0" encoding="UTF-8"?>
<svg id="Capa_1" data-name="Capa 1" xmlns="http://www.w3.org/2000/svg" viewBox="0 0 500 200">
  <defs>
    <style>
      .cls-1 {
        fill: #ff1621;
      }
    </style>
  </defs>
  <g>
    <rect class="cls-1" x="400.4" y="119.66" width="39.33" height="39.33" rx="3.66" ry="3.66"/>
    <rect class="cls-1" x="439.72" y="80.34" width="39.33" height="39.33" rx="3.66" ry="3.66"/>
    <path class="cls-1" d="M437.9,61v-16.33c0-2.02-1.63-3.66-3.65-3.66h-28.46c-1.97,0-3.57,1.61-3.57,3.58,0,35.72-1.82,37.57-37.49,37.57-2.01,0-3.66,1.64-3.66,3.65v28.37c0,2.02,1.64,3.65,3.66,3.65h16.33c39,0,56.84-17.83,56.84-56.84Z"/>
  </g>
  <path class="cls-1" d="M319.57,102.92c-2.5-3.31-2.5-7.88.02-11.18l50.21-65.87c1.84-2.41.12-5.88-2.91-5.88h-47.01c-4.48,0-8.68,2.19-11.25,5.86l-21.04,30.11c-1.44,2.07-4.5,2.09-5.97.04l-21.74-30.29c-2.58-3.59-6.73-5.72-11.15-5.72h-87.46c-4.95,0-9.51,2.66-11.94,6.97l-38.32,67.8c-1.3,2.3-4.62,2.3-5.92,0L66.79,26.97c-2.43-4.31-7-6.97-11.94-6.97h-30.24c-2.02,0-3.66,1.64-3.66,3.66v152.68c0,2.02,1.64,3.66,3.66,3.66h222.63c4.58,0,8.86-2.29,11.41-6.1l21.5-32.18c1.44-2.15,4.59-2.17,6.06-.04l22.2,32.36c2.56,3.73,6.79,5.96,11.31,5.96h50.84c3.02,0,4.74-3.46,2.92-5.87l-53.9-71.22ZM246.48,104.74l-48.09,63.38c-1.04,1.36-3.21.63-3.21-1.08V30.23c0-1.72,2.19-2.45,3.22-1.07l48.12,64.48c2.46,3.3,2.44,7.83-.04,11.11Z"/>
</svg>